# xmcd
#
# Track frame offsets: 
#        150
#        15663
#        26447
#        39743
#        55027
#        66998
#        85015
#        100895
#        112155
#        123462
#        137843
#        149172
#        168132
#
# Disc length: 2440 seconds
#
# Revision: 0
# Processed by: cddbd v1.4PL0 Copyright (c) Steve Scherf et al.
# Submitted via: ExactAudioCopy v0.90b4
#
DISCID=b609860d
DTITLE=Heidi Hauge  - Country Blue
DYEAR=2002
DGENRE=Country
TTITLE0=Turn it on, Turn it up, Turn m
TTITLE1=Once a day
TTITLE2=En drøm om Nashville
TTITLE3=Lay down beside me
TTITLE4=Does my ring hurt your finger
TTITLE5=Kom ta min hånd
TTITLE6=We belive in happy endings
TTITLE7=Hello little Bluebird
TTITLE8=Aldri min sjel
TTITLE9=Mama say a prayer
TTITLE10=Walk that line
TTITLE11=Siste dans
TTITLE12=Blue eyes crying in the rain
EXTD=
EXTT0=
EXTT1=
EXTT2=
EXTT3=
EXTT4=
EXTT5=
EXTT6=
EXTT7=
EXTT8=
EXTT9=
EXTT10=
EXTT11=
EXTT12=
PLAYORDER=
